solid wing
 facet normal -0.06643203713018106 0.9977909522754423 0
  outer loop
   vertex 0.50587925378325 -0.052565403561931 0
   vertex 0.50587925378325 -0.052565403561931 0.1
   vertex 0.52672060088602 -0.051177805146234 0.1
  endloop
 endfacet
 facet normal -0.06643203713018106 0.9977909522754423 0
  outer loop
   vertex 0.50587925378325 -0.052565403561931 0
   vertex 0.52672060088602 -0.051177805146234 0.1
   vertex 0.52672060088602 -0.051177805146234 0
  endloop
 endfacet
 facet normal -0.07061496255590775 0.9975036476440714 0
  outer loop
   vertex 0.52672060088602 -0.051177805146234 0
   vertex 0.52672060088602 -0.051177805146234 0.1
   vertex 0.5475559435702499 -0.049702836160445 0.1
  endloop
 endfacet
 facet normal -0.07061496255590775 0.9975036476440714 0
  outer loop
   vertex 0.52672060088602 -0.051177805146234 0
   vertex 0.5475559435702499 -0.049702836160445 0.1
   vertex 0.5475559435702499 -0.049702836160445 0
  endloop
 endfacet
 facet normal -0.07455529265021275 0.9972168812940547 0
  outer loop
   vertex 0.5475559435702499 -0.049702836160445 0
   vertex 0.5475559435702499 -0.049702836160445 0.1
   vertex 0.56838529875861 -0.04814556341375 0.1
  endloop
 endfacet
 facet normal -0.07455529265021275 0.9972168812940547 0
  outer loop
   vertex 0.5475559435702499 -0.049702836160445 0
   vertex 0.56838529875861 -0.04814556341375 0.1
   vertex 0.56838529875861 -0.04814556341375 0
  endloop
 endfacet
 facet normal -0.07827747131896692 0.9969316112371541 0
  outer loop
   vertex 0.56838529875861 -0.04814556341375 0
   vertex 0.56838529875861 -0.04814556341375 0.1
   vertex 0.5892086974108099 -0.046510543546401 0.1
  endloop
 endfacet
 facet normal -0.07827747131896692 0.9969316112371541 0
  outer loop
   vertex 0.56838529875861 -0.04814556341375 0
   vertex 0.5892086974108099 -0.046510543546401 0.1
   vertex 0.5892086974108099 -0.046510543546401 0
  endloop
 endfacet
 facet normal -0.08181000030780554 0.996647943784382 0
  outer loop
   vertex 0.5892086974108099 -0.046510543546401 0
   vertex 0.5892086974108099 -0.046510543546401 0.1
   vertex 0.61002617129352 -0.04480173798936 0.1
  endloop
 endfacet
 facet normal -0.08181000030780554 0.996647943784382 0
  outer loop
   vertex 0.5892086974108099 -0.046510543546401 0
   vertex 0.61002617129352 -0.04480173798936 0.1
   vertex 0.61002617129352 -0.04480173798936 0
  endloop
 endfacet
 facet normal -0.08516915942320216 0.9963665060022567 0
  outer loop
   vertex 0.61002617129352 -0.04480173798936 0
   vertex 0.61002617129352 -0.04480173798936 0.1
   vertex 0.63083776589106 -0.043022768094797 0.1
  endloop
 endfacet
 facet normal -0.08516915942320216 0.9963665060022567 0
  outer loop
   vertex 0.61002617129352 -0.04480173798936 0
   vertex 0.63083776589106 -0.043022768094797 0.1
   vertex 0.63083776589106 -0.043022768094797 0
  endloop
 endfacet
 facet normal -0.08838018353760768 0.9960868150707843 0
  outer loop
   vertex 0.63083776589106 -0.043022768094797 0
   vertex 0.63083776589106 -0.043022768094797 0.1
   vertex 0.65164351739636 -0.041176728062086 0.1
  endloop
 endfacet
 facet normal -0.08838018353760768 0.9960868150707843 0
  outer loop
   vertex 0.63083776589106 -0.043022768094797 0
   vertex 0.65164351739636 -0.041176728062086 0.1
   vertex 0.65164351739636 -0.041176728062086 0
  endloop
 endfacet
 facet normal -0.09146381352742732 0.9958084006549754 0
  outer loop
   vertex 0.65164351739636 -0.041176728062086 0
   vertex 0.65164351739636 -0.041176728062086 0.1
   vertex 0.67244345245197 -0.039266278843082 0.1
  endloop
 endfacet
 facet normal -0.09146381352742732 0.9958084006549754 0
  outer loop
   vertex 0.65164351739636 -0.041176728062086 0
   vertex 0.67244345245197 -0.039266278843082 0.1
   vertex 0.67244345245197 -0.039266278843082 0
  endloop
 endfacet
 facet normal -0.09443530956660162 0.9955310001738068 0
  outer loop
   vertex 0.67244345245197 -0.039266278843082 0
   vertex 0.67244345245197 -0.039266278843082 0.1
   vertex 0.6932375925690299 -0.03729376260925 0.1
  endloop
 endfacet
 facet normal -0.09443530956660162 0.9955310001738068 0
  outer loop
   vertex 0.67244345245197 -0.039266278843082 0
   vertex 0.6932375925690299 -0.03729376260925 0.1
   vertex 0.6932375925690299 -0.03729376260925 0
  endloop
 endfacet
 facet normal -0.09732498587039189 0.9952526549200098 0
  outer loop
   vertex 0.6932375925690299 -0.03729376260925 0
   vertex 0.6932375925690299 -0.03729376260925 0.1
   vertex 0.71402591805648 -0.035260888369394 0.1
  endloop
 endfacet
 facet normal -0.09732498587039189 0.9952526549200098 0
  outer loop
   vertex 0.6932375925690299 -0.03729376260925 0
   vertex 0.71402591805648 -0.035260888369394 0.1
   vertex 0.71402591805648 -0.035260888369394 0
  endloop
 endfacet
 facet normal -0.1001442763575512 0.9949729262210215 0
  outer loop
   vertex 0.71402591805648 -0.035260888369394 0
   vertex 0.71402591805648 -0.035260888369394 0.1
   vertex 0.73480840045521 -0.033169126266239 0.1
  endloop
 endfacet
 facet normal -0.1001442763575512 0.9949729262210215 0
  outer loop
   vertex 0.71402591805648 -0.035260888369394 0
   vertex 0.73480840045521 -0.033169126266239 0.1
   vertex 0.73480840045521 -0.033169126266239 0
  endloop
 endfacet
 facet normal -0.102912815014976 0.9946903802217518 0
  outer loop
   vertex 0.73480840045521 -0.033169126266239 0
   vertex 0.73480840045521 -0.033169126266239 0.1
   vertex 0.75558498087673 -0.03101953638372 0.1
  endloop
 endfacet
 facet normal -0.102912815014976 0.9946903802217518 0
  outer loop
   vertex 0.73480840045521 -0.033169126266239 0
   vertex 0.75558498087673 -0.03101953638372 0.1
   vertex 0.75558498087673 -0.03101953638372 0
  endloop
 endfacet
 facet normal -0.1056448728607163 0.9944039223767389 0
  outer loop
   vertex 0.75558498087673 -0.03101953638372 0
   vertex 0.75558498087673 -0.03101953638372 0.1
   vertex 0.77635557772991 -0.02881288070345 0.1
  endloop
 endfacet
 facet normal -0.1056448728607163 0.9944039223767389 0
  outer loop
   vertex 0.75558498087673 -0.03101953638372 0
   vertex 0.77635557772991 -0.02881288070345 0.1
   vertex 0.77635557772991 -0.02881288070345 0
  endloop
 endfacet
 facet normal -0.1083534269556142 0.9941124357269526 0
  outer loop
   vertex 0.77635557772991 -0.02881288070345 0
   vertex 0.77635557772991 -0.02881288070345 0.1
   vertex 0.79712008593649 -0.026549650164959 0.1
  endloop
 endfacet
 facet normal -0.1083534269556142 0.9941124357269526 0
  outer loop
   vertex 0.77635557772991 -0.02881288070345 0
   vertex 0.79712008593649 -0.026549650164959 0.1
   vertex 0.79712008593649 -0.026549650164959 0
  endloop
 endfacet
 facet normal -0.1110732517174702 0.9938122220786518 0
  outer loop
   vertex 0.79712008593649 -0.026549650164959 0
   vertex 0.79712008593649 -0.026549650164959 0.1
   vertex 0.81787832265413 -0.024229609415886 0.1
  endloop
 endfacet
 facet normal -0.1110732517174702 0.9938122220786518 0
  outer loop
   vertex 0.79712008593649 -0.026549650164959 0
   vertex 0.81787832265413 -0.024229609415886 0.1
   vertex 0.81787832265413 -0.024229609415886 0
  endloop
 endfacet
 facet normal -0.1137981770534837 0.9935038877122242 0
  outer loop
   vertex 0.81787832265413 -0.024229609415886 0
   vertex 0.81787832265413 -0.024229609415886 0.1
   vertex 0.83863011835721 -0.021852651911437 0.1
  endloop
 endfacet
 facet normal -0.1137981770534837 0.9935038877122242 0
  outer loop
   vertex 0.81787832265413 -0.024229609415886 0
   vertex 0.83863011835721 -0.021852651911437 0.1
   vertex 0.83863011835721 -0.021852651911437 0
  endloop
 endfacet
 facet normal -0.1165552480649154 0.9931842095747022 0
  outer loop
   vertex 0.83863011835721 -0.021852651911437 0
   vertex 0.83863011835721 -0.021852651911437 0.1
   vertex 0.8593752358635 -0.019418106241287 0.1
  endloop
 endfacet
 facet normal -0.1165552480649154 0.9931842095747022 0
  outer loop
   vertex 0.83863011835721 -0.021852651911437 0
   vertex 0.8593752358635 -0.019418106241287 0.1
   vertex 0.8593752358635 -0.019418106241287 0
  endloop
 endfacet
 facet normal -0.1193617374812791 0.9928508325148598 0
  outer loop
   vertex 0.8593752358635 -0.019418106241287 0
   vertex 0.8593752358635 -0.019418106241287 0.1
   vertex 0.88011338984832 -0.0169249400871 0.1
  endloop
 endfacet
 facet normal -0.1193617374812791 0.9928508325148598 0
  outer loop
   vertex 0.8593752358635 -0.019418106241287 0
   vertex 0.88011338984832 -0.0169249400871 0.1
   vertex 0.88011338984832 -0.0169249400871 0
  endloop
 endfacet
 facet normal -0.122224566484957 0.9925024712047644 0
  outer loop
   vertex 0.88011338984832 -0.0169249400871 0
   vertex 0.88011338984832 -0.0169249400871 0.1
   vertex 0.9008442679724 -0.01437197657811 0.1
  endloop
 endfacet
 facet normal -0.122224566484957 0.9925024712047644 0
  outer loop
   vertex 0.88011338984832 -0.0169249400871 0
   vertex 0.9008442679724 -0.01437197657811 0.1
   vertex 0.9008442679724 -0.01437197657811 0
  endloop
 endfacet
 facet normal -0.1249693633115405 0.9921606010286379 0
  outer loop
   vertex 0.9008442679724 -0.01437197657811 0
   vertex 0.9008442679724 -0.01437197657811 0.1
   vertex 0.9188726838007401 -0.012101175212638 0.1
  endloop
 endfacet
 facet normal -0.1249693633115405 0.9921606010286379 0
  outer loop
   vertex 0.9008442679724 -0.01437197657811 0
   vertex 0.9188726838007401 -0.012101175212638 0.1
   vertex 0.9188726838007401 -0.012101175212638 0
  endloop
 endfacet
 facet normal -0.1273670338210151 0.991855654163264 0
  outer loop
   vertex 0.9188726838007401 -0.012101175212638 0
   vertex 0.9188726838007401 -0.012101175212638 0.1
   vertex 0.93389174709747 -0.010172534149954 0.1
  endloop
 endfacet
 facet normal -0.1273670338210151 0.991855654163264 0
  outer loop
   vertex 0.9188726838007401 -0.012101175212638 0
   vertex 0.93389174709747 -0.010172534149954 0.1
   vertex 0.93389174709747 -0.010172534149954 0
  endloop
 endfacet
 facet normal -0.129423942089656 0.991589352108005 0
  outer loop
   vertex 0.93389174709747 -0.010172534149954 0
   vertex 0.93389174709747 -0.010172534149954 0.1
   vertex 0.94640427362376 -0.008539377737885699 0.1
  endloop
 endfacet
 facet normal -0.129423942089656 0.991589352108005 0
  outer loop
   vertex 0.93389174709747 -0.010172534149954 0
   vertex 0.94640427362376 -0.008539377737885699 0.1
   vertex 0.94640427362376 -0.008539377737885699 0
  endloop
 endfacet
 facet normal -0.1311608972823067 0.9913610941650374 0
  outer loop
   vertex 0.94640427362376 -0.008539377737885699 0
   vertex 0.94640427362376 -0.008539377737885699 0.1
   vertex 0.95682897891644 -0.0071601490106951 0.1
  endloop
 endfacet
 facet normal -0.1311608972823067 0.9913610941650374 0
  outer loop
   vertex 0.94640427362376 -0.008539377737885699 0
   vertex 0.95682897891644 -0.0071601490106951 0.1
   vertex 0.95682897891644 -0.0071601490106951 0
  endloop
 endfacet
 facet normal -0.13264947167751 0.991163012659208 0
  outer loop
   vertex 0.95682897891644 -0.0071601490106951 0
   vertex 0.95682897891644 -0.0071601490106951 0.1
   vertex 0.96551449774217 -0.0059977473988885 0.1
  endloop
 endfacet
 facet normal -0.13264947167751 0.991163012659208 0
  outer loop
   vertex 0.95682897891644 -0.0071601490106951 0
   vertex 0.96551449774217 -0.0059977473988885 0.1
   vertex 0.96551449774217 -0.0059977473988885 0
  endloop
 endfacet
 facet normal -0.1338990592571186 0.9909949757340138 0
  outer loop
   vertex 0.96551449774217 -0.0059977473988885 0
   vertex 0.96551449774217 -0.0059977473988885 0.1
   vertex 0.97275120305911 -0.0050199543143761 0.1
  endloop
 endfacet
 facet normal -0.1338990592571186 0.9909949757340138 0
  outer loop
   vertex 0.96551449774217 -0.0059977473988885 0
   vertex 0.97275120305911 -0.0050199543143761 0.1
   vertex 0.97275120305911 -0.0050199543143761 0
  endloop
 endfacet
 facet normal -0.1349615949115305 0.9908508302963348 0
  outer loop
   vertex 0.97275120305911 -0.0050199543143761 0
   vertex 0.97275120305911 -0.0050199543143761 0.1
   vertex 0.97878091369515 -0.0041986607963078 0.1
  endloop
 endfacet
 facet normal -0.1349615949115305 0.9908508302963348 0
  outer loop
   vertex 0.97275120305911 -0.0050199543143761 0
   vertex 0.97878091369515 -0.0041986607963078 0.1
   vertex 0.97878091369515 -0.0041986607963078 0
  endloop
 endfacet
 facet normal -0.1358486093776852 0.9907296075772386 0
  outer loop
   vertex 0.97878091369515 -0.0041986607963078 0
   vertex 0.97878091369515 -0.0041986607963078 0.1
   vertex 0.98380505777117 -0.0035097513493503 0.1
  endloop
 endfacet
 facet normal -0.1358486093776852 0.9907296075772386 0
  outer loop
   vertex 0.97878091369515 -0.0041986607963078 0
   vertex 0.98380505777117 -0.0035097513493503 0.1
   vertex 0.98380505777117 -0.0035097513493503 0
  endloop
 endfacet
 facet normal -0.1365987456516096 0.9906264597144611 0
  outer loop
   vertex 0.98380505777117 -0.0035097513493503 0
   vertex 0.98380505777117 -0.0035097513493503 0.1
   vertex 0.98799140850251 -0.0029324901091008 0.1
  endloop
 endfacet
 facet normal -0.1365987456516096 0.9906264597144611 0
  outer loop
   vertex 0.98380505777117 -0.0035097513493503 0
   vertex 0.98799140850251 -0.0029324901091008 0.1
   vertex 0.98799140850251 -0.0029324901091008 0
  endloop
 endfacet
 facet normal -0.1372301017164862 0.9905391961870479 0
  outer loop
   vertex 0.98799140850251 -0.0029324901091008 0
   vertex 0.98799140850251 -0.0029324901091008 0.1
   vertex 0.99147972684134 -0.0024492156639301 0.1
  endloop
 endfacet
 facet normal -0.1372301017164862 0.9905391961870479 0
  outer loop
   vertex 0.98799140850251 -0.0029324901091008 0
   vertex 0.99147972684134 -0.0024492156639301 0.1
   vertex 0.99147972684134 -0.0024492156639301 0
  endloop
 endfacet
 facet normal -0.1377640333223147 0.9904650781944652 0
  outer loop
   vertex 0.99147972684134 -0.0024492156639301 0
   vertex 0.99147972684134 -0.0024492156639301 0.1
   vertex 0.99438644128766 -0.002044920030841 0.1
  endloop
 endfacet
 facet normal -0.1377640333223147 0.9904650781944652 0
  outer loop
   vertex 0.99147972684134 -0.0024492156639301 0
   vertex 0.99438644128766 -0.002044920030841 0.1
   vertex 0.99438644128766 -0.002044920030841 0
  endloop
 endfacet
 facet normal -0.1382270917292262 0.9904005609409154 0
  outer loop
   vertex 0.99438644128766 -0.002044920030841 0
   vertex 0.99438644128766 -0.002044920030841 0.1
   vertex 0.99680854550945 -0.0017068745615159 0.1
  endloop
 endfacet
 facet normal -0.1382270917292262 0.9904005609409154 0
  outer loop
   vertex 0.99438644128766 -0.002044920030841 0
   vertex 0.99680854550945 -0.0017068745615159 0.1
   vertex 0.99680854550945 -0.0017068745615159 0
  endloop
 endfacet
 facet normal -0.138573508815115 0.9903521508305352 0
  outer loop
   vertex 0.99680854550945 -0.0017068745615159 0
   vertex 0.99680854550945 -0.0017068745615159 0.1
   vertex 0.99882686702344 -0.0014244640130296 0.1
  endloop
 endfacet
 facet normal -0.138573508815115 0.9903521508305352 0
  outer loop
   vertex 0.99680854550945 -0.0017068745615159 0
   vertex 0.99882686702344 -0.0014244640130296 0.1
   vertex 0.99882686702344 -0.0014244640130296 0
  endloop
 endfacet
 facet normal 0.8880744157735481 -0.4596997194348409 0
  outer loop
   vertex 0.0036199428145024 0.010443293756404 0
   vertex 0.0036199428145024 0.010443293756404 0.1
   vertex 0.000812040100258 0.005018825441376 0.1
  endloop
 endfacet
 facet normal 0.8880744157735481 -0.4596997194348409 0
  outer loop
   vertex 0.0036199428145024 0.010443293756404 0
   vertex 0.000812040100258 0.005018825441376 0.1
   vertex 0.000812040100258 0.005018825441376 0
  endloop
 endfacet
 facet normal 0.9871620874454514 -0.1597216738903603 0
  outer loop
   vertex 0.000812040100258 0.005018825441376 0
   vertex 0.000812040100258 0.005018825441376 0.1
   vertex 0 0 0.1
  endloop
 endfacet
 facet normal 0.9871620874454514 -0.1597216738903603 0
  outer loop
   vertex 0.000812040100258 0.005018825441376 0
   vertex 0 0 0.1
   vertex 0 0 0
  endloop
 endfacet
 facet normal 0.9871620874454514 0.1597216738903603 -0
  outer loop
   vertex 0 0 0
   vertex 0 0 0.1
   vertex 0.000812040100258 -0.005018825441376 0.1
  endloop
 endfacet
 facet normal 0.9871620874454514 0.1597216738903603 -0
  outer loop
   vertex 0 0 0
   vertex 0.000812040100258 -0.005018825441376 0.1
   vertex 0.000812040100258 -0.005018825441376 0
  endloop
 endfacet
 facet normal 0.8880744157735481 0.4596997194348409 -0
  outer loop
   vertex 0.000812040100258 -0.005018825441376 0
   vertex 0.000812040100258 -0.005018825441376 0.1
   vertex 0.0036199428145024 -0.010443293756404 0.1
  endloop
 endfacet
 facet normal 0.8880744157735481 0.4596997194348409 -0
  outer loop
   vertex 0.000812040100258 -0.005018825441376 0
   vertex 0.0036199428145024 -0.010443293756404 0.1
   vertex 0.0036199428145024 -0.010443293756404 0
  endloop
 endfacet
 facet normal 0.7358548186467161 0.6771393400729341 -0
  outer loop
   vertex 0.0036199428145024 -0.010443293756404 0
   vertex 0.0036199428145024 -0.010443293756404 0.1
   vertex 0.0085842322633502 -0.015838042068765 0.1
  endloop
 endfacet
 facet normal 0.7358548186467161 0.6771393400729341 -0
  outer loop
   vertex 0.0036199428145024 -0.010443293756404 0
   vertex 0.0085842322633502 -0.015838042068765 0.1
   vertex 0.0085842322633502 -0.015838042068765 0
  endloop
 endfacet
 facet normal 0.5937594913767817 0.8046425705864595 -0
  outer loop
   vertex 0.0085842322633502 -0.015838042068765 0
   vertex 0.0085842322633502 -0.015838042068765 0.1
   vertex 0.015664188845726 -0.021062462914728 0.1
  endloop
 endfacet
 facet normal 0.5937594913767817 0.8046425705864595 -0
  outer loop
   vertex 0.0085842322633502 -0.015838042068765 0
   vertex 0.015664188845726 -0.021062462914728 0.1
   vertex 0.015664188845726 -0.021062462914728 0
  endloop
 endfacet
 facet normal 0.4785989174828118 0.8780336418294463 -0
  outer loop
   vertex 0.015664188845726 -0.021062462914728 0
   vertex 0.015664188845726 -0.021062462914728 0.1
   vertex 0.024938620746911 -0.026117773846695 0.1
  endloop
 endfacet
 facet normal 0.4785989174828118 0.8780336418294463 -0
  outer loop
   vertex 0.015664188845726 -0.021062462914728 0
   vertex 0.024938620746911 -0.026117773846695 0.1
   vertex 0.024938620746911 -0.026117773846695 0
  endloop
 endfacet
 facet normal 0.3887304744766046 0.9213515171817941 -0
  outer loop
   vertex 0.024938620746911 -0.026117773846695 0
   vertex 0.024938620746911 -0.026117773846695 0.1
   vertex 0.036617738310981 -0.031045349074482 0.1
  endloop
 endfacet
 facet normal 0.3887304744766046 0.9213515171817941 -0
  outer loop
   vertex 0.024938620746911 -0.026117773846695 0
   vertex 0.036617738310981 -0.031045349074482 0.1
   vertex 0.036617738310981 -0.031045349074482 0
  endloop
 endfacet
 facet normal 0.3166674833392393 0.9485366123643266 -0
  outer loop
   vertex 0.036617738310981 -0.031045349074482 0
   vertex 0.036617738310981 -0.031045349074482 0.1
   vertex 0.051046585013616 -0.035862397265613 0.1
  endloop
 endfacet
 facet normal 0.3166674833392393 0.9485366123643266 -0
  outer loop
   vertex 0.036617738310981 -0.031045349074482 0
   vertex 0.051046585013616 -0.035862397265613 0.1
   vertex 0.051046585013616 -0.035862397265613 0
  endloop
 endfacet
 facet normal 0.2569731690656602 0.9664185378915037 -0
  outer loop
   vertex 0.051046585013616 -0.035862397265613 0
   vertex 0.051046585013616 -0.035862397265613 0.1
   vertex 0.068688521190927 -0.040553433364557 0.1
  endloop
 endfacet
 facet normal 0.2569731690656602 0.9664185378915037 -0
  outer loop
   vertex 0.051046585013616 -0.035862397265613 0
   vertex 0.068688521190927 -0.040553433364557 0.1
   vertex 0.068688521190927 -0.040553433364557 0
  endloop
 endfacet
 facet normal 0.2073447394416461 0.9782679382591846 -0
  outer loop
   vertex 0.068688521190927 -0.040553433364557 0
   vertex 0.068688521190927 -0.040553433364557 0.1
   vertex 0.089120966191209 -0.044884107834251 0.1
  endloop
 endfacet
 facet normal 0.2073447394416461 0.9782679382591846 -0
  outer loop
   vertex 0.068688521190927 -0.040553433364557 0
   vertex 0.089120966191209 -0.044884107834251 0.1
   vertex 0.089120966191209 -0.044884107834251 0
  endloop
 endfacet
 facet normal 0.1677488820128933 0.9858297584184728 -0
  outer loop
   vertex 0.089120966191209 -0.044884107834251 0
   vertex 0.089120966191209 -0.044884107834251 0.1
   vertex 0.10971195036908 -0.048387871588476 0.1
  endloop
 endfacet
 facet normal 0.1677488820128933 0.9858297584184728 -0
  outer loop
   vertex 0.089120966191209 -0.044884107834251 0
   vertex 0.10971195036908 -0.048387871588476 0.1
   vertex 0.10971195036908 -0.048387871588476 0
  endloop
 endfacet
 facet normal 0.1367408443187059 0.9906068551625349 -0
  outer loop
   vertex 0.10971195036908 -0.048387871588476 0
   vertex 0.10971195036908 -0.048387871588476 0.1
   vertex 0.13040288205305 -0.051243995037917 0.1
  endloop
 endfacet
 facet normal 0.1367408443187059 0.9906068551625349 -0
  outer loop
   vertex 0.10971195036908 -0.048387871588476 0
   vertex 0.13040288205305 -0.051243995037917 0.1
   vertex 0.13040288205305 -0.051243995037917 0
  endloop
 endfacet
 facet normal 0.1113118445006114 0.9937855267983489 -0
  outer loop
   vertex 0.13040288205305 -0.051243995037917 0
   vertex 0.13040288205305 -0.051243995037917 0.1
   vertex 0.15116045994446 -0.053569008051441 0.1
  endloop
 endfacet
 facet normal 0.1113118445006114 0.9937855267983489 -0
  outer loop
   vertex 0.13040288205305 -0.051243995037917 0
   vertex 0.15116045994446 -0.053569008051441 0.1
   vertex 0.15116045994446 -0.053569008051441 0
  endloop
 endfacet
 facet normal 0.08991015706209231 0.9959498800929041 -0
  outer loop
   vertex 0.15116045994446 -0.053569008051441 0
   vertex 0.15116045994446 -0.053569008051441 0.1
   vertex 0.17196328989153 -0.055446999851292 0.1
  endloop
 endfacet
 facet normal 0.08991015706209231 0.9959498800929041 -0
  outer loop
   vertex 0.15116045994446 -0.053569008051441 0
   vertex 0.17196328989153 -0.055446999851292 0.1
   vertex 0.17196328989153 -0.055446999851292 0
  endloop
 endfacet
 facet normal 0.07148021133762761 0.9974420180577558 -0
  outer loop
   vertex 0.17196328989153 -0.055446999851292 0
   vertex 0.17196328989153 -0.055446999851292 0.1
   vertex 0.19279728538275 -0.056940037415139 0.1
  endloop
 endfacet
 facet normal 0.07148021133762761 0.9974420180577558 -0
  outer loop
   vertex 0.17196328989153 -0.055446999851292 0
   vertex 0.19279728538275 -0.056940037415139 0.1
   vertex 0.19279728538275 -0.056940037415139 0
  endloop
 endfacet
 facet normal 0.05532044638441679 0.998468651591941 -0
  outer loop
   vertex 0.19279728538275 -0.056940037415139 0
   vertex 0.19279728538275 -0.056940037415139 0.1
   vertex 0.21365274610353 -0.058095540289252 0.1
  endloop
 endfacet
 facet normal 0.05532044638441679 0.998468651591941 -0
  outer loop
   vertex 0.19279728538275 -0.056940037415139 0
   vertex 0.21365274610353 -0.058095540289252 0.1
   vertex 0.21365274610353 -0.058095540289252 0
  endloop
 endfacet
 facet normal 0.0409977262653901 0.9991592397816618 -0
  outer loop
   vertex 0.21365274610353 -0.058095540289252 0
   vertex 0.21365274610353 -0.058095540289252 0.1
   vertex 0.23452265197369 -0.058951878952783 0.1
  endloop
 endfacet
 facet normal 0.0409977262653901 0.9991592397816618 -0
  outer loop
   vertex 0.21365274610353 -0.058095540289252 0
   vertex 0.23452265197369 -0.058951878952783 0.1
   vertex 0.23452265197369 -0.058951878952783 0
  endloop
 endfacet
 facet normal 0.02817857361041717 0.9996029051524822 -0
  outer loop
   vertex 0.23452265197369 -0.058951878952783 0
   vertex 0.23452265197369 -0.058951878952783 0.1
   vertex 0.25540183894609 -0.059540458381669 0.1
  endloop
 endfacet
 facet normal 0.02817857361041717 0.9996029051524822 -0
  outer loop
   vertex 0.23452265197369 -0.058951878952783 0
   vertex 0.25540183894609 -0.059540458381669 0.1
   vertex 0.25540183894609 -0.059540458381669 0
  endloop
 endfacet
 facet normal 0.01661468879013233 0.9998619665315842 -0
  outer loop
   vertex 0.25540183894609 -0.059540458381669 0
   vertex 0.25540183894609 -0.059540458381669 0.1
   vertex 0.27628644554911 -0.059887497523899 0.1
  endloop
 endfacet
 facet normal 0.01661468879013233 0.9998619665315842 -0
  outer loop
   vertex 0.25540183894609 -0.059540458381669 0
   vertex 0.27628644554911 -0.059887497523899 0.1
   vertex 0.27628644554911 -0.059887497523899 0
  endloop
 endfacet
 facet normal 0.006130053861508368 0.9999812110433149 -0
  outer loop
   vertex 0.27628644554911 -0.059887497523899 0
   vertex 0.27628644554911 -0.059887497523899 0.1
   vertex 0.29717354739424 -0.060015538988986 0.1
  endloop
 endfacet
 facet normal 0.006130053861508368 0.9999812110433149 -0
  outer loop
   vertex 0.27628644554911 -0.059887497523899 0
   vertex 0.29717354739424 -0.060015538988986 0.1
   vertex 0.29717354739424 -0.060015538988986 0
  endloop
 endfacet
 facet normal -0.003429316587007758 0.999994119876585 0
  outer loop
   vertex 0.29717354739424 -0.060015538988986 0
   vertex 0.29717354739424 -0.060015538988986 0.1
   vertex 0.31806092007138 -0.059943909154213 0.1
  endloop
 endfacet
 facet normal -0.003429316587007758 0.999994119876585 0
  outer loop
   vertex 0.29717354739424 -0.060015538988986 0
   vertex 0.31806092007138 -0.059943909154213 0.1
   vertex 0.31806092007138 -0.059943909154213 0
  endloop
 endfacet
 facet normal -0.01218030479634629 0.9999258173360003 0
  outer loop
   vertex 0.31806092007138 -0.059943909154213 0
   vertex 0.31806092007138 -0.059943909154213 0.1
   vertex 0.33894686483306 -0.059689493107796 0.1
  endloop
 endfacet
 facet normal -0.01218030479634629 0.9999258173360003 0
  outer loop
   vertex 0.31806092007138 -0.059943909154213 0
   vertex 0.33894686483306 -0.059689493107796 0.1
   vertex 0.33894686483306 -0.059689493107796 0
  endloop
 endfacet
 facet normal -0.02021601942387076 0.9997956353968812 0
  outer loop
   vertex 0.33894686483306 -0.059689493107796 0
   vertex 0.33894686483306 -0.059689493107796 0.1
   vertex 0.35983008720788 -0.059267231183243 0.1
  endloop
 endfacet
 facet normal -0.02021601942387076 0.9997956353968812 0
  outer loop
   vertex 0.33894686483306 -0.059689493107796 0
   vertex 0.35983008720788 -0.059267231183243 0.1
   vertex 0.35983008720788 -0.059267231183243 0
  endloop
 endfacet
 facet normal -0.02761402611724089 0.9996186600707273 0
  outer loop
   vertex 0.35983008720788 -0.059267231183243 0
   vertex 0.35983008720788 -0.059267231183243 0.1
   vertex 0.38070960878764 -0.058690443576879 0.1
  endloop
 endfacet
 facet normal -0.02761402611724089 0.9996186600707273 0
  outer loop
   vertex 0.35983008720788 -0.059267231183243 0
   vertex 0.38070960878764 -0.058690443576879 0.1
   vertex 0.38070960878764 -0.058690443576879 0
  endloop
 endfacet
 facet normal -0.0344514874200422 0.9994063713097624 0
  outer loop
   vertex 0.38070960878764 -0.058690443576879 0
   vertex 0.38070960878764 -0.058690443576879 0.1
   vertex 0.40158469678231 -0.057970838567259 0.1
  endloop
 endfacet
 facet normal -0.0344514874200422 0.9994063713097624 0
  outer loop
   vertex 0.38070960878764 -0.058690443576879 0
   vertex 0.40158469678231 -0.057970838567259 0.1
   vertex 0.40158469678231 -0.057970838567259 0
  endloop
 endfacet
 facet normal -0.04078928209410138 0.9991677709305118 0
  outer loop
   vertex 0.40158469678231 -0.057970838567259 0
   vertex 0.40158469678231 -0.057970838567259 0.1
   vertex 0.4224548087113 -0.057118852636994 0.1
  endloop
 endfacet
 facet normal -0.04078928209410138 0.9991677709305118 0
  outer loop
   vertex 0.40158469678231 -0.057970838567259 0
   vertex 0.4224548087113 -0.057118852636994 0.1
   vertex 0.4224548087113 -0.057118852636994 0
  endloop
 endfacet
 facet normal -0.04666714683769445 0.9989104951926518 0
  outer loop
   vertex 0.4224548087113 -0.057118852636994 0
   vertex 0.4224548087113 -0.057118852636994 0.1
   vertex 0.44331955012828 -0.056144092679898 0.1
  endloop
 endfacet
 facet normal -0.04666714683769445 0.9989104951926518 0
  outer loop
   vertex 0.4224548087113 -0.057118852636994 0
   vertex 0.44331955012828 -0.056144092679898 0.1
   vertex 0.44331955012828 -0.056144092679898 0
  endloop
 endfacet
 facet normal -0.05213045720215233 0.9986402833011968 0
  outer loop
   vertex 0.44331955012828 -0.056144092679898 0
   vertex 0.44331955012828 -0.056144092679898 0.1
   vertex 0.46417864737829 -0.055055217842131 0.1
  endloop
 endfacet
 facet normal -0.05213045720215233 0.9986402833011968 0
  outer loop
   vertex 0.44331955012828 -0.056144092679898 0
   vertex 0.46417864737829 -0.055055217842131 0.1
   vertex 0.46417864737829 -0.055055217842131 0
  endloop
 endfacet
 facet normal -0.05722276243246364 0.9983614352826324 0
  outer loop
   vertex 0.46417864737829 -0.055055217842131 0
   vertex 0.46417864737829 -0.055055217842131 0.1
   vertex 0.48503191782392 -0.053859977623029 0.1
  endloop
 endfacet
 facet normal -0.05722276243246364 0.9983614352826324 0
  outer loop
   vertex 0.46417864737829 -0.055055217842131 0
   vertex 0.48503191782392 -0.053859977623029 0.1
   vertex 0.48503191782392 -0.053859977623029 0
  endloop
 endfacet
 facet normal -0.06197843362634652 0.9980774888580669 0
  outer loop
   vertex 0.48503191782392 -0.053859977623029 0
   vertex 0.48503191782392 -0.053859977623029 0.1
   vertex 0.50587925378325 -0.052565403561931 0.1
  endloop
 endfacet
 facet normal -0.06197843362634652 0.9980774888580669 0
  outer loop
   vertex 0.48503191782392 -0.053859977623029 0
   vertex 0.50587925378325 -0.052565403561931 0.1
   vertex 0.50587925378325 -0.052565403561931 0
  endloop
 endfacet
 facet normal -0.138573508815115 -0.9903521508305352 0
  outer loop
   vertex 0.99882686702344 0.0014244640130296 0
   vertex 0.99882686702344 0.0014244640130296 0.1
   vertex 0.99680854550945 0.0017068745615159 0.1
  endloop
 endfacet
 facet normal -0.138573508815115 -0.9903521508305352 0
  outer loop
   vertex 0.99882686702344 0.0014244640130296 0
   vertex 0.99680854550945 0.0017068745615159 0.1
   vertex 0.99680854550945 0.0017068745615159 0
  endloop
 endfacet
 facet normal -0.1382270917292262 -0.9904005609409154 0
  outer loop
   vertex 0.99680854550945 0.0017068745615159 0
   vertex 0.99680854550945 0.0017068745615159 0.1
   vertex 0.99438644128766 0.002044920030841 0.1
  endloop
 endfacet
 facet normal -0.1382270917292262 -0.9904005609409154 0
  outer loop
   vertex 0.99680854550945 0.0017068745615159 0
   vertex 0.99438644128766 0.002044920030841 0.1
   vertex 0.99438644128766 0.002044920030841 0
  endloop
 endfacet
 facet normal -0.1377640333223147 -0.9904650781944652 0
  outer loop
   vertex 0.99438644128766 0.002044920030841 0
   vertex 0.99438644128766 0.002044920030841 0.1
   vertex 0.99147972684134 0.0024492156639301 0.1
  endloop
 endfacet
 facet normal -0.1377640333223147 -0.9904650781944652 0
  outer loop
   vertex 0.99438644128766 0.002044920030841 0
   vertex 0.99147972684134 0.0024492156639301 0.1
   vertex 0.99147972684134 0.0024492156639301 0
  endloop
 endfacet
 facet normal -0.1372301017164862 -0.9905391961870479 0
  outer loop
   vertex 0.99147972684134 0.0024492156639301 0
   vertex 0.99147972684134 0.0024492156639301 0.1
   vertex 0.98799140850251 0.0029324901091008 0.1
  endloop
 endfacet
 facet normal -0.1372301017164862 -0.9905391961870479 0
  outer loop
   vertex 0.99147972684134 0.0024492156639301 0
   vertex 0.98799140850251 0.0029324901091008 0.1
   vertex 0.98799140850251 0.0029324901091008 0
  endloop
 endfacet
 facet normal -0.1365987456516096 -0.9906264597144611 0
  outer loop
   vertex 0.98799140850251 0.0029324901091008 0
   vertex 0.98799140850251 0.0029324901091008 0.1
   vertex 0.98380505777117 0.0035097513493503 0.1
  endloop
 endfacet
 facet normal -0.1365987456516096 -0.9906264597144611 0
  outer loop
   vertex 0.98799140850251 0.0029324901091008 0
   vertex 0.98380505777117 0.0035097513493503 0.1
   vertex 0.98380505777117 0.0035097513493503 0
  endloop
 endfacet
 facet normal -0.1358486093776852 -0.9907296075772386 0
  outer loop
   vertex 0.98380505777117 0.0035097513493503 0
   vertex 0.98380505777117 0.0035097513493503 0.1
   vertex 0.97878091369515 0.0041986607963078 0.1
  endloop
 endfacet
 facet normal -0.1358486093776852 -0.9907296075772386 0
  outer loop
   vertex 0.98380505777117 0.0035097513493503 0
   vertex 0.97878091369515 0.0041986607963078 0.1
   vertex 0.97878091369515 0.0041986607963078 0
  endloop
 endfacet
 facet normal -0.1349615949115305 -0.9908508302963348 0
  outer loop
   vertex 0.97878091369515 0.0041986607963078 0
   vertex 0.97878091369515 0.0041986607963078 0.1
   vertex 0.97275120305911 0.0050199543143761 0.1
  endloop
 endfacet
 facet normal -0.1349615949115305 -0.9908508302963348 0
  outer loop
   vertex 0.97878091369515 0.0041986607963078 0
   vertex 0.97275120305911 0.0050199543143761 0.1
   vertex 0.97275120305911 0.0050199543143761 0
  endloop
 endfacet
 facet normal -0.1338990592571186 -0.9909949757340138 0
  outer loop
   vertex 0.97275120305911 0.0050199543143761 0
   vertex 0.97275120305911 0.0050199543143761 0.1
   vertex 0.96551449774217 0.0059977473988885 0.1
  endloop
 endfacet
 facet normal -0.1338990592571186 -0.9909949757340138 0
  outer loop
   vertex 0.97275120305911 0.0050199543143761 0
   vertex 0.96551449774217 0.0059977473988885 0.1
   vertex 0.96551449774217 0.0059977473988885 0
  endloop
 endfacet
 facet normal -0.13264947167751 -0.991163012659208 0
  outer loop
   vertex 0.96551449774217 0.0059977473988885 0
   vertex 0.96551449774217 0.0059977473988885 0.1
   vertex 0.95682897891644 0.0071601490106951 0.1
  endloop
 endfacet
 facet normal -0.13264947167751 -0.991163012659208 0
  outer loop
   vertex 0.96551449774217 0.0059977473988885 0
   vertex 0.95682897891644 0.0071601490106951 0.1
   vertex 0.95682897891644 0.0071601490106951 0
  endloop
 endfacet
 facet normal -0.1311608972823067 -0.9913610941650374 0
  outer loop
   vertex 0.95682897891644 0.0071601490106951 0
   vertex 0.95682897891644 0.0071601490106951 0.1
   vertex 0.94640427362376 0.008539377737885699 0.1
  endloop
 endfacet
 facet normal -0.1311608972823067 -0.9913610941650374 0
  outer loop
   vertex 0.95682897891644 0.0071601490106951 0
   vertex 0.94640427362376 0.008539377737885699 0.1
   vertex 0.94640427362376 0.008539377737885699 0
  endloop
 endfacet
 facet normal -0.129423942089656 -0.991589352108005 0
  outer loop
   vertex 0.94640427362376 0.008539377737885699 0
   vertex 0.94640427362376 0.008539377737885699 0.1
   vertex 0.93389174709747 0.010172534149954 0.1
  endloop
 endfacet
 facet normal -0.129423942089656 -0.991589352108005 0
  outer loop
   vertex 0.94640427362376 0.008539377737885699 0
   vertex 0.93389174709747 0.010172534149954 0.1
   vertex 0.93389174709747 0.010172534149954 0
  endloop
 endfacet
 facet normal -0.1273670338210151 -0.991855654163264 0
  outer loop
   vertex 0.93389174709747 0.010172534149954 0
   vertex 0.93389174709747 0.010172534149954 0.1
   vertex 0.9188726838007401 0.012101175212638 0.1
  endloop
 endfacet
 facet normal -0.1273670338210151 -0.991855654163264 0
  outer loop
   vertex 0.93389174709747 0.010172534149954 0
   vertex 0.9188726838007401 0.012101175212638 0.1
   vertex 0.9188726838007401 0.012101175212638 0
  endloop
 endfacet
 facet normal -0.1249693633115405 -0.9921606010286379 0
  outer loop
   vertex 0.9188726838007401 0.012101175212638 0
   vertex 0.9188726838007401 0.012101175212638 0.1
   vertex 0.9008442679724 0.01437197657811 0.1
  endloop
 endfacet
 facet normal -0.1249693633115405 -0.9921606010286379 0
  outer loop
   vertex 0.9188726838007401 0.012101175212638 0
   vertex 0.9008442679724 0.01437197657811 0.1
   vertex 0.9008442679724 0.01437197657811 0
  endloop
 endfacet
 facet normal -0.122224566484957 -0.9925024712047644 0
  outer loop
   vertex 0.9008442679724 0.01437197657811 0
   vertex 0.9008442679724 0.01437197657811 0.1
   vertex 0.88011338984832 0.0169249400871 0.1
  endloop
 endfacet
 facet normal -0.122224566484957 -0.9925024712047644 0
  outer loop
   vertex 0.9008442679724 0.01437197657811 0
   vertex 0.88011338984832 0.0169249400871 0.1
   vertex 0.88011338984832 0.0169249400871 0
  endloop
 endfacet
 facet normal -0.1193617374812791 -0.9928508325148598 0
  outer loop
   vertex 0.88011338984832 0.0169249400871 0
   vertex 0.88011338984832 0.0169249400871 0.1
   vertex 0.8593752358635 0.019418106241287 0.1
  endloop
 endfacet
 facet normal -0.1193617374812791 -0.9928508325148598 0
  outer loop
   vertex 0.88011338984832 0.0169249400871 0
   vertex 0.8593752358635 0.019418106241287 0.1
   vertex 0.8593752358635 0.019418106241287 0
  endloop
 endfacet
 facet normal -0.1165552480649154 -0.9931842095747022 0
  outer loop
   vertex 0.8593752358635 0.019418106241287 0
   vertex 0.8593752358635 0.019418106241287 0.1
   vertex 0.83863011835721 0.021852651911437 0.1
  endloop
 endfacet
 facet normal -0.1165552480649154 -0.9931842095747022 0
  outer loop
   vertex 0.8593752358635 0.019418106241287 0
   vertex 0.83863011835721 0.021852651911437 0.1
   vertex 0.83863011835721 0.021852651911437 0
  endloop
 endfacet
 facet normal -0.1137981770534837 -0.9935038877122242 0
  outer loop
   vertex 0.83863011835721 0.021852651911437 0
   vertex 0.83863011835721 0.021852651911437 0.1
   vertex 0.81787832265413 0.024229609415886 0.1
  endloop
 endfacet
 facet normal -0.1137981770534837 -0.9935038877122242 0
  outer loop
   vertex 0.83863011835721 0.021852651911437 0
   vertex 0.81787832265413 0.024229609415886 0.1
   vertex 0.81787832265413 0.024229609415886 0
  endloop
 endfacet
 facet normal -0.1110732517174702 -0.9938122220786518 0
  outer loop
   vertex 0.81787832265413 0.024229609415886 0
   vertex 0.81787832265413 0.024229609415886 0.1
   vertex 0.79712008593649 0.026549650164959 0.1
  endloop
 endfacet
 facet normal -0.1110732517174702 -0.9938122220786518 0
  outer loop
   vertex 0.81787832265413 0.024229609415886 0
   vertex 0.79712008593649 0.026549650164959 0.1
   vertex 0.79712008593649 0.026549650164959 0
  endloop
 endfacet
 facet normal -0.1083534269556142 -0.9941124357269526 0
  outer loop
   vertex 0.79712008593649 0.026549650164959 0
   vertex 0.79712008593649 0.026549650164959 0.1
   vertex 0.77635557772991 0.02881288070345 0.1
  endloop
 endfacet
 facet normal -0.1083534269556142 -0.9941124357269526 0
  outer loop
   vertex 0.79712008593649 0.026549650164959 0
   vertex 0.77635557772991 0.02881288070345 0.1
   vertex 0.77635557772991 0.02881288070345 0
  endloop
 endfacet
 facet normal -0.1056448728607163 -0.9944039223767389 0
  outer loop
   vertex 0.77635557772991 0.02881288070345 0
   vertex 0.77635557772991 0.02881288070345 0.1
   vertex 0.75558498087673 0.03101953638372 0.1
  endloop
 endfacet
 facet normal -0.1056448728607163 -0.9944039223767389 0
  outer loop
   vertex 0.77635557772991 0.02881288070345 0
   vertex 0.75558498087673 0.03101953638372 0.1
   vertex 0.75558498087673 0.03101953638372 0
  endloop
 endfacet
 facet normal -0.102912815014976 -0.9946903802217518 0
  outer loop
   vertex 0.75558498087673 0.03101953638372 0
   vertex 0.75558498087673 0.03101953638372 0.1
   vertex 0.73480840045521 0.033169126266239 0.1
  endloop
 endfacet
 facet normal -0.102912815014976 -0.9946903802217518 0
  outer loop
   vertex 0.75558498087673 0.03101953638372 0
   vertex 0.73480840045521 0.033169126266239 0.1
   vertex 0.73480840045521 0.033169126266239 0
  endloop
 endfacet
 facet normal -0.1001442763575512 -0.9949729262210215 0
  outer loop
   vertex 0.73480840045521 0.033169126266239 0
   vertex 0.73480840045521 0.033169126266239 0.1
   vertex 0.71402591805648 0.035260888369394 0.1
  endloop
 endfacet
 facet normal -0.1001442763575512 -0.9949729262210215 0
  outer loop
   vertex 0.73480840045521 0.033169126266239 0
   vertex 0.71402591805648 0.035260888369394 0.1
   vertex 0.71402591805648 0.035260888369394 0
  endloop
 endfacet
 facet normal -0.09732498587039189 -0.9952526549200098 0
  outer loop
   vertex 0.71402591805648 0.035260888369394 0
   vertex 0.71402591805648 0.035260888369394 0.1
   vertex 0.6932375925690299 0.03729376260925 0.1
  endloop
 endfacet
 facet normal -0.09732498587039189 -0.9952526549200098 0
  outer loop
   vertex 0.71402591805648 0.035260888369394 0
   vertex 0.6932375925690299 0.03729376260925 0.1
   vertex 0.6932375925690299 0.03729376260925 0
  endloop
 endfacet
 facet normal -0.09443530956660162 -0.9955310001738068 0
  outer loop
   vertex 0.6932375925690299 0.03729376260925 0
   vertex 0.6932375925690299 0.03729376260925 0.1
   vertex 0.67244345245197 0.039266278843082 0.1
  endloop
 endfacet
 facet normal -0.09443530956660162 -0.9955310001738068 0
  outer loop
   vertex 0.6932375925690299 0.03729376260925 0
   vertex 0.67244345245197 0.039266278843082 0.1
   vertex 0.67244345245197 0.039266278843082 0
  endloop
 endfacet
 facet normal -0.09146381352742732 -0.9958084006549754 0
  outer loop
   vertex 0.67244345245197 0.039266278843082 0
   vertex 0.67244345245197 0.039266278843082 0.1
   vertex 0.65164351739636 0.041176728062086 0.1
  endloop
 endfacet
 facet normal -0.09146381352742732 -0.9958084006549754 0
  outer loop
   vertex 0.67244345245197 0.039266278843082 0
   vertex 0.65164351739636 0.041176728062086 0.1
   vertex 0.65164351739636 0.041176728062086 0
  endloop
 endfacet
 facet normal -0.08838018353760768 -0.9960868150707843 0
  outer loop
   vertex 0.65164351739636 0.041176728062086 0
   vertex 0.65164351739636 0.041176728062086 0.1
   vertex 0.63083776589106 0.043022768094797 0.1
  endloop
 endfacet
 facet normal -0.08838018353760768 -0.9960868150707843 0
  outer loop
   vertex 0.65164351739636 0.041176728062086 0
   vertex 0.63083776589106 0.043022768094797 0.1
   vertex 0.63083776589106 0.043022768094797 0
  endloop
 endfacet
 facet normal -0.08516915942320216 -0.9963665060022567 0
  outer loop
   vertex 0.63083776589106 0.043022768094797 0
   vertex 0.63083776589106 0.043022768094797 0.1
   vertex 0.61002617129352 0.04480173798936 0.1
  endloop
 endfacet
 facet normal -0.08516915942320216 -0.9963665060022567 0
  outer loop
   vertex 0.63083776589106 0.043022768094797 0
   vertex 0.61002617129352 0.04480173798936 0.1
   vertex 0.61002617129352 0.04480173798936 0
  endloop
 endfacet
 facet normal -0.08181000030780554 -0.996647943784382 0
  outer loop
   vertex 0.61002617129352 0.04480173798936 0
   vertex 0.61002617129352 0.04480173798936 0.1
   vertex 0.5892086974108099 0.046510543546401 0.1
  endloop
 endfacet
 facet normal -0.08181000030780554 -0.996647943784382 0
  outer loop
   vertex 0.61002617129352 0.04480173798936 0
   vertex 0.5892086974108099 0.046510543546401 0.1
   vertex 0.5892086974108099 0.046510543546401 0
  endloop
 endfacet
 facet normal -1 0 0
  outer loop
   vertex 0.99882686702344 -0.0014244640130296 0
   vertex 0.99882686702344 -0.0014244640130296 0.1
   vertex 0.99882686702344 -0.0007122320065148 0.1
  endloop
 endfacet
 facet normal -1 0 0
  outer loop
   vertex 0.99882686702344 -0.0014244640130296 0
   vertex 0.99882686702344 -0.0007122320065148 0.1
   vertex 0.99882686702344 -0.0007122320065148 0
  endloop
 endfacet
 facet normal -1 0 0
  outer loop
   vertex 0.99882686702344 -0.0007122320065148 0
   vertex 0.99882686702344 -0.0007122320065148 0.1
   vertex 0.99882686702344 0 0.1
  endloop
 endfacet
 facet normal -1 0 0
  outer loop
   vertex 0.99882686702344 -0.0007122320065148 0
   vertex 0.99882686702344 0 0.1
   vertex 0.99882686702344 0 0
  endloop
 endfacet
 facet normal -1 0 0
  outer loop
   vertex 0.99882686702344 0 0
   vertex 0.99882686702344 0 0.1
   vertex 0.99882686702344 0.0007122320065148 0.1
  endloop
 endfacet
 facet normal -1 0 0
  outer loop
   vertex 0.99882686702344 0 0
   vertex 0.99882686702344 0.0007122320065148 0.1
   vertex 0.99882686702344 0.0007122320065148 0
  endloop
 endfacet
 facet normal -1 0 0
  outer loop
   vertex 0.99882686702344 0.0007122320065148 0
   vertex 0.99882686702344 0.0007122320065148 0.1
   vertex 0.99882686702344 0.0014244640130296 0.1
  endloop
 endfacet
 facet normal -1 0 0
  outer loop
   vertex 0.99882686702344 0.0007122320065148 0
   vertex 0.99882686702344 0.0014244640130296 0.1
   vertex 0.99882686702344 0.0014244640130296 0
  endloop
 endfacet
 facet normal -0.07827747131896692 -0.9969316112371541 0
  outer loop
   vertex 0.5892086974108099 0.046510543546401 0
   vertex 0.5892086974108099 0.046510543546401 0.1
   vertex 0.56838529875861 0.04814556341375 0.1
  endloop
 endfacet
 facet normal -0.07827747131896692 -0.9969316112371541 0
  outer loop
   vertex 0.5892086974108099 0.046510543546401 0
   vertex 0.56838529875861 0.04814556341375 0.1
   vertex 0.56838529875861 0.04814556341375 0
  endloop
 endfacet
 facet normal -0.07455529265021275 -0.9972168812940547 0
  outer loop
   vertex 0.56838529875861 0.04814556341375 0
   vertex 0.56838529875861 0.04814556341375 0.1
   vertex 0.5475559435702499 0.049702836160445 0.1
  endloop
 endfacet
 facet normal -0.07455529265021275 -0.9972168812940547 0
  outer loop
   vertex 0.56838529875861 0.04814556341375 0
   vertex 0.5475559435702499 0.049702836160445 0.1
   vertex 0.5475559435702499 0.049702836160445 0
  endloop
 endfacet
 facet normal -0.07061496255590775 -0.9975036476440714 0
  outer loop
   vertex 0.5475559435702499 0.049702836160445 0
   vertex 0.5475559435702499 0.049702836160445 0.1
   vertex 0.52672060088602 0.051177805146234 0.1
  endloop
 endfacet
 facet normal -0.07061496255590775 -0.9975036476440714 0
  outer loop
   vertex 0.5475559435702499 0.049702836160445 0
   vertex 0.52672060088602 0.051177805146234 0.1
   vertex 0.52672060088602 0.051177805146234 0
  endloop
 endfacet
 facet normal -0.06643203713018106 -0.9977909522754423 0
  outer loop
   vertex 0.52672060088602 0.051177805146234 0
   vertex 0.52672060088602 0.051177805146234 0.1
   vertex 0.50587925378325 0.052565403561931 0.1
  endloop
 endfacet
 facet normal -0.06643203713018106 -0.9977909522754423 0
  outer loop
   vertex 0.52672060088602 0.051177805146234 0
   vertex 0.50587925378325 0.052565403561931 0.1
   vertex 0.50587925378325 0.052565403561931 0
  endloop
 endfacet
 facet normal -0.06197843362634652 -0.9980774888580669 0
  outer loop
   vertex 0.50587925378325 0.052565403561931 0
   vertex 0.50587925378325 0.052565403561931 0.1
   vertex 0.48503191782392 0.053859977623029 0.1
  endloop
 endfacet
 facet normal -0.06197843362634652 -0.9980774888580669 0
  outer loop
   vertex 0.50587925378325 0.052565403561931 0
   vertex 0.48503191782392 0.053859977623029 0.1
   vertex 0.48503191782392 0.053859977623029 0
  endloop
 endfacet
 facet normal -0.05722276243246364 -0.9983614352826324 0
  outer loop
   vertex 0.48503191782392 0.053859977623029 0
   vertex 0.48503191782392 0.053859977623029 0.1
   vertex 0.46417864737829 0.055055217842131 0.1
  endloop
 endfacet
 facet normal -0.05722276243246364 -0.9983614352826324 0
  outer loop
   vertex 0.48503191782392 0.053859977623029 0
   vertex 0.46417864737829 0.055055217842131 0.1
   vertex 0.46417864737829 0.055055217842131 0
  endloop
 endfacet
 facet normal -0.05213045720215233 -0.9986402833011968 0
  outer loop
   vertex 0.46417864737829 0.055055217842131 0
   vertex 0.46417864737829 0.055055217842131 0.1
   vertex 0.44331955012828 0.056144092679898 0.1
  endloop
 endfacet
 facet normal -0.05213045720215233 -0.9986402833011968 0
  outer loop
   vertex 0.46417864737829 0.055055217842131 0
   vertex 0.44331955012828 0.056144092679898 0.1
   vertex 0.44331955012828 0.056144092679898 0
  endloop
 endfacet
 facet normal -0.04666714683769445 -0.9989104951926518 0
  outer loop
   vertex 0.44331955012828 0.056144092679898 0
   vertex 0.44331955012828 0.056144092679898 0.1
   vertex 0.4224548087113 0.057118852636994 0.1
  endloop
 endfacet
 facet normal -0.04666714683769445 -0.9989104951926518 0
  outer loop
   vertex 0.44331955012828 0.056144092679898 0
   vertex 0.4224548087113 0.057118852636994 0.1
   vertex 0.4224548087113 0.057118852636994 0
  endloop
 endfacet
 facet normal -0.04078928209410138 -0.9991677709305118 0
  outer loop
   vertex 0.4224548087113 0.057118852636994 0
   vertex 0.4224548087113 0.057118852636994 0.1
   vertex 0.40158469678231 0.057970838567259 0.1
  endloop
 endfacet
 facet normal -0.04078928209410138 -0.9991677709305118 0
  outer loop
   vertex 0.4224548087113 0.057118852636994 0
   vertex 0.40158469678231 0.057970838567259 0.1
   vertex 0.40158469678231 0.057970838567259 0
  endloop
 endfacet
 facet normal -0.0344514874200422 -0.9994063713097624 0
  outer loop
   vertex 0.40158469678231 0.057970838567259 0
   vertex 0.40158469678231 0.057970838567259 0.1
   vertex 0.38070960878764 0.058690443576879 0.1
  endloop
 endfacet
 facet normal -0.0344514874200422 -0.9994063713097624 0
  outer loop
   vertex 0.40158469678231 0.057970838567259 0
   vertex 0.38070960878764 0.058690443576879 0.1
   vertex 0.38070960878764 0.058690443576879 0
  endloop
 endfacet
 facet normal -0.02761402611724089 -0.9996186600707273 0
  outer loop
   vertex 0.38070960878764 0.058690443576879 0
   vertex 0.38070960878764 0.058690443576879 0.1
   vertex 0.35983008720788 0.059267231183243 0.1
  endloop
 endfacet
 facet normal -0.02761402611724089 -0.9996186600707273 0
  outer loop
   vertex 0.38070960878764 0.058690443576879 0
   vertex 0.35983008720788 0.059267231183243 0.1
   vertex 0.35983008720788 0.059267231183243 0
  endloop
 endfacet
 facet normal -0.02021601942387076 -0.9997956353968812 0
  outer loop
   vertex 0.35983008720788 0.059267231183243 0
   vertex 0.35983008720788 0.059267231183243 0.1
   vertex 0.33894686483306 0.059689493107796 0.1
  endloop
 endfacet
 facet normal -0.02021601942387076 -0.9997956353968812 0
  outer loop
   vertex 0.35983008720788 0.059267231183243 0
   vertex 0.33894686483306 0.059689493107796 0.1
   vertex 0.33894686483306 0.059689493107796 0
  endloop
 endfacet
 facet normal -0.01218030479634629 -0.9999258173360003 0
  outer loop
   vertex 0.33894686483306 0.059689493107796 0
   vertex 0.33894686483306 0.059689493107796 0.1
   vertex 0.31806092007138 0.059943909154213 0.1
  endloop
 endfacet
 facet normal -0.01218030479634629 -0.9999258173360003 0
  outer loop
   vertex 0.33894686483306 0.059689493107796 0
   vertex 0.31806092007138 0.059943909154213 0.1
   vertex 0.31806092007138 0.059943909154213 0
  endloop
 endfacet
 facet normal -0.003429316587007758 -0.999994119876585 0
  outer loop
   vertex 0.31806092007138 0.059943909154213 0
   vertex 0.31806092007138 0.059943909154213 0.1
   vertex 0.29717354739424 0.060015538988986 0.1
  endloop
 endfacet
 facet normal -0.003429316587007758 -0.999994119876585 0
  outer loop
   vertex 0.31806092007138 0.059943909154213 0
   vertex 0.29717354739424 0.060015538988986 0.1
   vertex 0.29717354739424 0.060015538988986 0
  endloop
 endfacet
 facet normal 0.006130053861508368 -0.9999812110433149 0
  outer loop
   vertex 0.29717354739424 0.060015538988986 0
   vertex 0.29717354739424 0.060015538988986 0.1
   vertex 0.27628644554911 0.059887497523899 0.1
  endloop
 endfacet
 facet normal 0.006130053861508368 -0.9999812110433149 0
  outer loop
   vertex 0.29717354739424 0.060015538988986 0
   vertex 0.27628644554911 0.059887497523899 0.1
   vertex 0.27628644554911 0.059887497523899 0
  endloop
 endfacet
 facet normal 0.01661468879013233 -0.9998619665315842 0
  outer loop
   vertex 0.27628644554911 0.059887497523899 0
   vertex 0.27628644554911 0.059887497523899 0.1
   vertex 0.25540183894609 0.059540458381669 0.1
  endloop
 endfacet
 facet normal 0.01661468879013233 -0.9998619665315842 0
  outer loop
   vertex 0.27628644554911 0.059887497523899 0
   vertex 0.25540183894609 0.059540458381669 0.1
   vertex 0.25540183894609 0.059540458381669 0
  endloop
 endfacet
 facet normal 0.02817857361041717 -0.9996029051524822 0
  outer loop
   vertex 0.25540183894609 0.059540458381669 0
   vertex 0.25540183894609 0.059540458381669 0.1
   vertex 0.23452265197369 0.058951878952783 0.1
  endloop
 endfacet
 facet normal 0.02817857361041717 -0.9996029051524822 0
  outer loop
   vertex 0.25540183894609 0.059540458381669 0
   vertex 0.23452265197369 0.058951878952783 0.1
   vertex 0.23452265197369 0.058951878952783 0
  endloop
 endfacet
 facet normal 0.0409977262653901 -0.9991592397816618 0
  outer loop
   vertex 0.23452265197369 0.058951878952783 0
   vertex 0.23452265197369 0.058951878952783 0.1
   vertex 0.21365274610353 0.058095540289252 0.1
  endloop
 endfacet
 facet normal 0.0409977262653901 -0.9991592397816618 0
  outer loop
   vertex 0.23452265197369 0.058951878952783 0
   vertex 0.21365274610353 0.058095540289252 0.1
   vertex 0.21365274610353 0.058095540289252 0
  endloop
 endfacet
 facet normal 0.05532044638441679 -0.998468651591941 0
  outer loop
   vertex 0.21365274610353 0.058095540289252 0
   vertex 0.21365274610353 0.058095540289252 0.1
   vertex 0.19279728538275 0.056940037415139 0.1
  endloop
 endfacet
 facet normal 0.05532044638441679 -0.998468651591941 0
  outer loop
   vertex 0.21365274610353 0.058095540289252 0
   vertex 0.19279728538275 0.056940037415139 0.1
   vertex 0.19279728538275 0.056940037415139 0
  endloop
 endfacet
 facet normal 0.07148021133762761 -0.9974420180577558 0
  outer loop
   vertex 0.19279728538275 0.056940037415139 0
   vertex 0.19279728538275 0.056940037415139 0.1
   vertex 0.17196328989153 0.055446999851292 0.1
  endloop
 endfacet
 facet normal 0.07148021133762761 -0.9974420180577558 0
  outer loop
   vertex 0.19279728538275 0.056940037415139 0
   vertex 0.17196328989153 0.055446999851292 0.1
   vertex 0.17196328989153 0.055446999851292 0
  endloop
 endfacet
 facet normal 0.08991015706209231 -0.9959498800929041 0
  outer loop
   vertex 0.17196328989153 0.055446999851292 0
   vertex 0.17196328989153 0.055446999851292 0.1
   vertex 0.15116045994446 0.053569008051441 0.1
  endloop
 endfacet
 facet normal 0.08991015706209231 -0.9959498800929041 0
  outer loop
   vertex 0.17196328989153 0.055446999851292 0
   vertex 0.15116045994446 0.053569008051441 0.1
   vertex 0.15116045994446 0.053569008051441 0
  endloop
 endfacet
 facet normal 0.1113118445006114 -0.9937855267983489 0
  outer loop
   vertex 0.15116045994446 0.053569008051441 0
   vertex 0.15116045994446 0.053569008051441 0.1
   vertex 0.13040288205305 0.051243995037917 0.1
  endloop
 endfacet
 facet normal 0.1113118445006114 -0.9937855267983489 0
  outer loop
   vertex 0.15116045994446 0.053569008051441 0
   vertex 0.13040288205305 0.051243995037917 0.1
   vertex 0.13040288205305 0.051243995037917 0
  endloop
 endfacet
 facet normal 0.1367408443187059 -0.9906068551625349 0
  outer loop
   vertex 0.13040288205305 0.051243995037917 0
   vertex 0.13040288205305 0.051243995037917 0.1
   vertex 0.10971195036908 0.048387871588476 0.1
  endloop
 endfacet
 facet normal 0.1367408443187059 -0.9906068551625349 0
  outer loop
   vertex 0.13040288205305 0.051243995037917 0
   vertex 0.10971195036908 0.048387871588476 0.1
   vertex 0.10971195036908 0.048387871588476 0
  endloop
 endfacet
 facet normal 0.1677488820128933 -0.9858297584184728 0
  outer loop
   vertex 0.10971195036908 0.048387871588476 0
   vertex 0.10971195036908 0.048387871588476 0.1
   vertex 0.089120966191209 0.044884107834251 0.1
  endloop
 endfacet
 facet normal 0.1677488820128933 -0.9858297584184728 0
  outer loop
   vertex 0.10971195036908 0.048387871588476 0
   vertex 0.089120966191209 0.044884107834251 0.1
   vertex 0.089120966191209 0.044884107834251 0
  endloop
 endfacet
 facet normal 0.2073447394416461 -0.9782679382591846 0
  outer loop
   vertex 0.089120966191209 0.044884107834251 0
   vertex 0.089120966191209 0.044884107834251 0.1
   vertex 0.068688521190927 0.040553433364557 0.1
  endloop
 endfacet
 facet normal 0.2073447394416461 -0.9782679382591846 0
  outer loop
   vertex 0.089120966191209 0.044884107834251 0
   vertex 0.068688521190927 0.040553433364557 0.1
   vertex 0.068688521190927 0.040553433364557 0
  endloop
 endfacet
 facet normal 0.2569731690656602 -0.9664185378915037 0
  outer loop
   vertex 0.068688521190927 0.040553433364557 0
   vertex 0.068688521190927 0.040553433364557 0.1
   vertex 0.051046585013616 0.035862397265613 0.1
  endloop
 endfacet
 facet normal 0.2569731690656602 -0.9664185378915037 0
  outer loop
   vertex 0.068688521190927 0.040553433364557 0
   vertex 0.051046585013616 0.035862397265613 0.1
   vertex 0.051046585013616 0.035862397265613 0
  endloop
 endfacet
 facet normal 0.3166674833392393 -0.9485366123643266 0
  outer loop
   vertex 0.051046585013616 0.035862397265613 0
   vertex 0.051046585013616 0.035862397265613 0.1
   vertex 0.036617738310981 0.031045349074482 0.1
  endloop
 endfacet
 facet normal 0.3166674833392393 -0.9485366123643266 0
  outer loop
   vertex 0.051046585013616 0.035862397265613 0
   vertex 0.036617738310981 0.031045349074482 0.1
   vertex 0.036617738310981 0.031045349074482 0
  endloop
 endfacet
 facet normal 0.3887304744766046 -0.9213515171817941 0
  outer loop
   vertex 0.036617738310981 0.031045349074482 0
   vertex 0.036617738310981 0.031045349074482 0.1
   vertex 0.024938620746911 0.026117773846695 0.1
  endloop
 endfacet
 facet normal 0.3887304744766046 -0.9213515171817941 0
  outer loop
   vertex 0.036617738310981 0.031045349074482 0
   vertex 0.024938620746911 0.026117773846695 0.1
   vertex 0.024938620746911 0.026117773846695 0
  endloop
 endfacet
 facet normal 0.4785989174828118 -0.8780336418294463 0
  outer loop
   vertex 0.024938620746911 0.026117773846695 0
   vertex 0.024938620746911 0.026117773846695 0.1
   vertex 0.015664188845726 0.021062462914728 0.1
  endloop
 endfacet
 facet normal 0.4785989174828118 -0.8780336418294463 0
  outer loop
   vertex 0.024938620746911 0.026117773846695 0
   vertex 0.015664188845726 0.021062462914728 0.1
   vertex 0.015664188845726 0.021062462914728 0
  endloop
 endfacet
 facet normal 0.5937594913767817 -0.8046425705864595 0
  outer loop
   vertex 0.015664188845726 0.021062462914728 0
   vertex 0.015664188845726 0.021062462914728 0.1
   vertex 0.0085842322633502 0.015838042068765 0.1
  endloop
 endfacet
 facet normal 0.5937594913767817 -0.8046425705864595 0
  outer loop
   vertex 0.015664188845726 0.021062462914728 0
   vertex 0.0085842322633502 0.015838042068765 0.1
   vertex 0.0085842322633502 0.015838042068765 0
  endloop
 endfacet
 facet normal 0.7358548186467161 -0.6771393400729341 0
  outer loop
   vertex 0.0085842322633502 0.015838042068765 0
   vertex 0.0085842322633502 0.015838042068765 0.1
   vertex 0.0036199428145024 0.010443293756404 0.1
  endloop
 endfacet
 facet normal 0.7358548186467161 -0.6771393400729341 0
  outer loop
   vertex 0.0085842322633502 0.015838042068765 0
   vertex 0.0036199428145024 0.010443293756404 0.1
   vertex 0.0036199428145024 0.010443293756404 0
  endloop
 endfacet
endsolid wing
